HIERARCHY
ROOT Hips
{
	OFFSET 0.00 0.00 0.00
	CHANNELS 6 Xposition Yposition Zposition Xrotation Yrotation Zrotation
	JOINT RightUpLeg
	{
		OFFSET -4.47808 0.00000 0.00000
		CHANNELS 3 Xrotation Yrotation Zrotation
		JOINT RightLeg
		{
			OFFSET 0.00000 -16.40577 0.00000
			CHANNELS 3 Xrotation Yrotation Zrotation
			JOINT RightFoot
			{
				OFFSET 0.00000 -14.64414 0.00000
				CHANNELS 3 Xrotation Yrotation Zrotation
				JOINT RightToeBase
				{
					OFFSET 0.00000 -1.50274 5.60831
					CHANNELS 3 Xrotation Yrotation Zrotation
					End Site
					{
						OFFSET 0.00000 0.00000 2.95275
					}
				}
			}
		}
	}
	JOINT LeftUpLeg
	{
		OFFSET 4.47808 0.00000 0.00000
		CHANNELS 3 Xrotation Yrotation Zrotation
		JOINT LeftLeg
		{
			OFFSET 0.00000 -16.40577 0.00000
			CHANNELS 3 Xrotation Yrotation Zrotation
			JOINT LeftFoot
			{
				OFFSET 0.00000 -14.64414 0.00000
				CHANNELS 3 Xrotation Yrotation Zrotation
				JOINT LeftToeBase
				{
					OFFSET 0.00000 -1.50274 5.60831
					CHANNELS 3 Xrotation Yrotation Zrotation
					End Site
					{
						OFFSET 0.00000 0.00000 2.95275
					}
				}
			}
		}
	}
	JOINT Spine
	{
		OFFSET 0.00000 6.06821 0.00000
		CHANNELS 3 Xrotation Yrotation Zrotation
		JOINT RightShoulder
		{
			OFFSET 0.00000 10.01392 0.00000
			CHANNELS 3 Xrotation Yrotation Zrotation
			JOINT RightArm
			{
				OFFSET -7.19022 0.00000 0.00000
				CHANNELS 3 Xrotation Yrotation Zrotation
				JOINT RightForeArm
				{
					OFFSET -10.17747 0.00000 0.00000
					CHANNELS 3 Yrotation Zrotation Xrotation
					JOINT RightHand
					{
						OFFSET -8.39211 0.00000 0.00000
						CHANNELS 3 Xrotation Yrotation Zrotation
						End Site
						{
							OFFSET -3.93700 0.00000 0.00000
						}
						JOINT RightHandThumb1
						{
							OFFSET 0.00000 0.00000 0.00000
							CHANNELS 3 Xrotation Zrotation Yrotation
							End Site
							{
								OFFSET 0.00000 0.00000 3.93700
							}
						}
					}
				}
			}
		}
		JOINT LeftShoulder
		{
			OFFSET 0.00000 10.01392 0.00000
			CHANNELS 3 Xrotation Yrotation Zrotation
			JOINT LeftArm
			{
				OFFSET 7.19022 0.00000 0.00000
				CHANNELS 3 Xrotation Yrotation Zrotation
				JOINT LeftForeArm
				{
					OFFSET 10.17747 0.00000 0.00000
					CHANNELS 3 Yrotation Zrotation Xrotation
					JOINT LeftHand
					{
						OFFSET 8.39211 0.00000 0.00000
						CHANNELS 3 Xrotation Yrotation Zrotation
						End Site
						{
							OFFSET 3.93700 0.00000 0.00000
						}
						JOINT LeftHandThumb1
						{
							OFFSET 0.00000 0.00000 0.00000
							CHANNELS 3 Xrotation Zrotation Yrotation
							End Site
							{
								OFFSET 0.00000 0.00000 3.93700
							}
						}
					}
				}
			}
		}
		JOINT Head
		{
			OFFSET 0.00000 15.77748 0.00000
			CHANNELS 3 Xrotation Yrotation Zrotation
			End Site
			{
				OFFSET 0.00000 4.52755 0.00000
			}
		}
	}
}
MOTION
Frames: 14
Frame Time: 0.008333
 -2.4652 3.1349 -10.6725 -27.5282 3.1712 1.3005 -61.1920 -7.8429 -4.6208 5.0270 -0.0000 -0.0000 22.4611 -1.9759 11.3181 -14.6882 0.0000 0.0000 -89.7675 45.3514 -34.4766 119.6351 -0.0000 -0.0000 8.4944 15.5397 -6.8374 -14.8091 0.0000 0.0000 39.6564 45.2895 -13.1390 -12.1559 13.9168 -19.3248 -73.5902 77.4878 117.0849 63.9723 0.0000 9.6878 -9.9845 10.9337 42.8665 32.8623 0.0000 -24.3270 -3.5884 18.9260 20.8220 -7.0582 -30.7249 -97.4820 -6.4312 0.0000 -8.3919 -17.2554 10.0180 60.7490 33.1476 -0.0000 26.2537 -23.4156 -7.8809 -0.1238
 -2.4633 3.1313 -10.6690 -27.5160 3.1095 1.2494 -61.1966 -7.8287 -4.5420 5.0313 -0.0000 -0.0000 22.4401 -1.9724 11.3154 -14.6948 -0.0000 0.0000 -89.8466 45.3272 -34.4212 119.6581 -0.0000 -0.0000 8.4917 15.5628 -6.8230 -14.7446 0.0000 0.0000 39.6134 45.1597 -13.1116 -12.2133 13.9871 -19.3244 -73.3712 77.1781 116.8407 63.9117 0.0000 9.9299 -10.0158 11.0282 42.7148 32.8623 0.0000 -24.3270 -3.4717 18.9668 20.8137 -6.9531 -30.5546 -97.4453 -6.5347 0.0000 -8.3897 -17.2541 10.0093 60.7681 33.1476 -0.0000 26.2537 -23.4204 -9.2590 -0.1084
 -2.4607 3.1288 -10.6647 -27.4744 3.0522 1.1667 -61.2203 -7.8758 -4.4558 5.0204 0.0000 0.0000 22.4394 -1.9432 11.3614 -14.7104 -0.0000 0.0000 -89.9422 45.2874 -34.3478 119.6888 -0.0000 -0.0000 8.4671 15.5641 -6.7836 -14.6914 -0.0000 -0.0000 39.5093 45.0580 -13.0590 -12.2810 14.0108 -19.3077 -73.2341 76.8666 116.6958 63.8462 0.0000 10.1843 -10.0840 11.1706 42.5511 32.8623 0.0000 -24.3270 -3.4095 18.9819 20.8205 -6.7743 -30.3752 -97.3972 -6.6433 0.0000 -8.4291 -17.2458 9.9831 60.8191 33.1476 -0.0000 26.2537 -23.4403 -10.5873 -0.0845
 -2.4587 3.1251 -10.6605 -27.4653 2.9922 1.1077 -61.2177 -7.8746 -4.3737 5.0156 0.0000 0.0000 22.4136 -1.9495 11.3322 -14.6929 -0.0000 0.0000 -90.0216 45.2486 -34.2942 119.7152 -0.0000 -0.0000 8.4693 15.5959 -6.8665 -14.7183 0.0000 0.0000 39.4693 44.9246 -13.0286 -12.3429 14.0789 -19.3287 -72.9065 76.4648 116.3738 63.7905 0.0000 10.4204 -10.1084 11.2120 42.5173 32.8623 0.0000 -24.3270 -3.3645 19.0058 20.8346 -6.6018 -30.1931 -97.3592 -6.7434 0.0000 -8.4003 -17.2793 9.9962 60.8375 33.1476 -0.0000 26.2537 -23.4512 -11.8368 -0.0648
 -2.4576 3.1211 -10.6570 -27.4533 2.9356 1.0668 -61.2261 -7.8562 -4.3062 5.0268 -0.0000 0.0000 22.3735 -1.9469 11.3137 -14.6831 -0.0000 0.0000 -90.1085 45.2180 -34.2425 119.7393 -0.0000 -0.0000 8.4546 15.6253 -6.9159 -14.6855 0.0000 0.0000 39.4347 44.7911 -13.0243 -12.4124 14.1775 -19.3385 -72.4054 76.1014 115.8772 63.7588 0.0000 10.5365 -10.1512 11.2955 42.4314 32.8623 0.0000 -24.3270 -3.2808 18.9994 20.8606 -6.4793 -30.0229 -97.3440 -6.8243 0.0000 -8.4484 -17.3287 10.0206 60.8529 33.1476 -0.0000 26.2537 -23.4251 -13.0275 -0.0094
 -2.4547 3.1188 -10.6536 -27.4496 2.8740 1.0246 -61.2167 -7.8468 -4.2334 5.0152 0.0000 -0.0000 22.3650 -1.9506 11.3030 -14.6951 -0.0000 0.0000 -90.1636 45.2014 -34.1936 119.7557 -0.0000 -0.0000 8.4403 15.6537 -6.9019 -14.5714 -0.0000 0.0000 39.4223 44.6716 -13.0273 -12.4787 14.2454 -19.3504 -71.9082 75.7444 115.3809 63.7597 0.0000 10.7302 -10.1867 11.3682 42.3523 32.8623 0.0000 -24.3270 -3.3165 18.9545 20.9079 -6.2475 -29.9066 -97.3223 -6.9004 0.0000 -8.5358 -17.3269 10.0068 60.8834 33.1476 -0.0000 26.2537 -23.4041 -14.1095 0.0651
 -2.4522 3.1160 -10.6499 -27.4310 2.8225 0.9703 -61.2225 -7.8602 -4.1645 5.0085 -0.0000 0.0000 22.3327 -1.9505 11.3030 -14.6720 0.0000 -0.0000 -90.2399 45.1637 -34.1566 119.7757 -0.0000 -0.0000 8.4365 15.6615 -6.8940 -14.6424 -0.0000 -0.0000 39.3764 44.5559 -13.0135 -12.5304 14.2826 -19.3532 -71.4715 75.3886 114.9311 63.7792 0.0000 10.8829 -10.1546 11.4257 42.1186 32.8623 0.0000 -24.3270 -3.3116 18.9507 20.9382 -6.0635 -29.8438 -97.2894 -6.9986 0.0000 -8.6391 -17.3703 10.0058 60.9505 33.1476 -0.0000 26.2537 -23.3882 -15.2260 0.1541
 -2.4498 3.1125 -10.6469 -27.4159 2.7779 0.9221 -61.2295 -7.8506 -4.1060 5.0080 -0.0000 -0.0000 22.3013 -1.9590 11.3034 -14.6151 -0.0000 0.0000 -90.3033 45.1400 -34.1149 119.7901 -0.0000 0.0000 8.4407 15.6994 -6.9571 -14.6034 -0.0000 -0.0000 39.3458 44.4338 -12.9935 -12.5823 14.3323 -19.3821 -71.1029 75.0110 114.5422 63.7515 0.0000 10.9449 -10.1859 11.4740 42.0895 32.8623 0.0000 -24.3270 -3.2543 18.9586 20.9361 -5.9179 -29.7870 -97.2438 -7.1242 0.0000 -8.7507 -17.4096 10.0123 60.9934 33.1476 -0.0000 26.2537 -23.3707 -16.2444 0.2094
 -2.4474 3.1099 -10.6442 -27.4209 2.7258 0.9001 -61.2219 -7.8037 -4.0536 5.0055 -0.0000 -0.0000 22.2994 -1.9714 11.3388 -14.6961 -0.0000 -0.0000 -90.3415 45.1357 -34.0640 119.8046 -0.0000 0.0000 8.4259 15.6995 -6.9360 -14.5852 0.0000 0.0000 39.3637 44.2936 -13.0168 -12.6404 14.4098 -19.3937 -70.5450 74.6040 113.9664 63.7730 0.0000 11.0770 -10.2160 11.4874 42.1425 32.8623 0.0000 -24.3270 -3.2495 18.9239 20.9617 -5.6995 -29.7002 -97.2039 -7.2645 0.0000 -8.8684 -17.4053 9.9900 61.0404 33.1476 -0.0000 26.2537 -23.3551 -17.2184 0.2704
 -2.4450 3.1074 -10.6413 -27.3942 2.6807 0.8725 -61.2466 -7.7951 -4.0003 5.0142 -0.0000 0.0000 22.2635 -1.9675 11.3175 -14.6985 0.0000 0.0000 -90.4037 45.1312 -34.0186 119.8182 -0.0000 0.0000 8.4073 15.7163 -6.9175 -14.5535 0.0000 -0.0000 39.3184 44.1529 -13.0488 -12.6817 14.4587 -19.3289 -70.0954 74.2745 113.4580 63.8018 0.0000 11.2191 -10.2241 11.5219 42.0813 32.8623 0.0000 -24.3270 -3.1013 18.9954 20.9732 -5.6821 -29.6577 -97.1862 -7.3757 0.0000 -8.9701 -17.4403 9.9889 61.0950 33.1476 -0.0000 26.2537 -23.2042 -18.2430 0.4491
 -2.4416 3.1037 -10.6386 -27.3868 2.6398 0.8418 -61.2575 -7.7784 -3.9526 5.0340 -0.0000 -0.0000 22.2048 -1.9613 11.3016 -14.6317 -0.0000 0.0000 -90.4446 45.1331 -33.9739 119.8305 0.0000 -0.0000 8.4039 15.7480 -6.9880 -14.4656 0.0000 0.0000 39.3047 44.0025 -13.0503 -12.7083 14.5118 -19.3236 -69.6009 73.8523 112.8979 63.8284 0.0000 11.3768 -10.2363 11.6603 41.7804 32.8623 0.0000 -24.3270 -2.9832 19.0372 20.9682 -5.5771 -29.6329 -97.1431 -7.5634 0.0000 -9.0965 -17.4805 10.0146 61.0928 33.1476 -0.0000 26.2537 -23.1462 -19.0584 0.5507
 -2.4395 3.1003 -10.6363 -27.3692 2.5942 0.8052 -61.2766 -7.7496 -3.8972 5.0488 -0.0000 -0.0000 22.1908 -1.9671 11.3332 -14.6765 -0.0000 0.0000 -90.4978 45.1392 -33.9184 119.8410 0.0000 -0.0000 8.4057 15.7725 -6.9269 -14.4509 -0.0000 0.0000 39.2958 43.8842 -13.0698 -12.8163 14.5523 -19.2761 -69.0729 73.4429 112.3627 63.8671 0.0000 11.6060 -10.3077 11.8172 41.6077 32.8623 0.0000 -24.3270 -2.9560 19.0087 20.9885 -5.3665 -29.5466 -97.0923 -7.7397 0.0000 -9.1934 -17.4810 9.9806 61.1751 33.1476 -0.0000 26.2537 -23.1004 -19.9291 0.6485
 -2.4365 3.0967 -10.6344 -27.3535 2.5567 0.7835 -61.2959 -7.7197 -3.8545 5.0609 0.0000 0.0000 22.1564 -1.9633 11.2897 -14.6212 -0.0000 0.0000 -90.5358 45.1514 -33.8750 119.8490 -0.0000 -0.0000 8.4027 15.8049 -6.9480 -14.4700 -0.0000 -0.0000 39.3010 43.7638 -13.0935 -12.8127 14.5462 -19.3171 -68.6353 72.8999 111.8481 63.8721 0.0000 11.7836 -10.3086 11.8479 41.5374 32.8623 0.0000 -24.3270 -2.8622 18.9913 20.9577 -5.2076 -29.3230 -97.0167 -7.9000 0.0000 -9.1656 -17.5700 9.9932 61.2755 33.1476 -0.0000 26.2537 -23.0446 -20.7434 0.7261
 -2.4338 3.0923 -10.6316 -27.3369 2.5163 0.7582 -61.3216 -7.6986 -3.8074 5.0755 -0.0000 0.0000 22.1869 -1.9615 11.4457 -14.8234 -0.0000 0.0000 -90.5995 45.1461 -33.8318 119.8657 -0.0000 0.0000 8.3903 15.8227 -7.0070 -14.3974 -0.0000 -0.0000 39.2872 43.6127 -13.1045 -12.8581 14.6042 -19.3376 -68.0958 72.3189 111.2816 63.8923 0.0000 11.9912 -10.3474 11.9309 41.4509 32.8623 0.0000 -24.3270 -2.7593 19.0368 20.9502 -5.0877 -29.2289 -96.9649 -8.0717 0.0000 -9.2174 -17.5900 9.9857 61.3228 33.1476 -0.0000 26.2537 -22.9869 -21.4819 0.8285
